<svg width="44" height="45" viewBox="0 0 44 45" fill="none" xmlns="http://www.w3.org/2000/svg">
<g id="Group">
<path id="Vector" d="M19.7874 0.106411C12.7747 0.804359 6.29375 5.04189 2.85388 11.1406C-1.3338 18.5521 -0.885117 27.8248 4.01712 34.7378C8.45406 41.0027 16.4971 44.7583 23.8421 43.9607C27.0992 43.6117 29.4755 42.9138 32.2008 41.5012C35.0591 40.0223 37.5351 37.9284 39.5126 35.3194C43.8831 29.5198 45.1627 21.9754 42.9027 15.1289C42.2878 13.2677 40.8753 10.5091 39.7453 8.9803C37.7678 6.32145 34.8431 3.86203 31.8519 2.34981C28.1627 0.505238 23.7923 -0.309032 19.7874 0.106411ZM20.8343 16.3253C21.4325 16.6078 22.0972 17.0067 22.3299 17.1895L22.7453 17.5218L21.715 18.5687L20.6847 19.599L19.804 19.1171C18.0924 18.1865 16.065 18.5854 14.719 20.1142C13.2234 21.8258 13.3397 24.3351 14.9848 25.9803C16.7629 27.7584 20.0533 27.4759 21.2497 25.4485C21.4824 25.0663 21.6652 24.6508 21.6652 24.5511C21.6652 24.4016 21.1002 24.3517 19.7541 24.3517H17.8431V22.8561V21.3605H21.1666C25.0054 21.3605 24.8226 21.2774 24.8226 23.0555C24.8226 27.5756 21.2165 30.7163 16.8294 30.0516C12.891 29.4368 10.1158 25.6811 10.7141 21.8092C11.0464 19.7154 12.6085 17.4387 14.37 16.5248C15.6828 15.8601 16.3475 15.7105 18.0924 15.7603C19.588 15.7936 19.8705 15.8434 20.8343 16.3253ZM30.8049 20.2804V21.5267H32.0347C32.716 21.5267 33.2976 21.5932 33.3308 21.6929C33.3641 21.776 33.3475 22.2247 33.3308 22.6899L33.2644 23.5208H32.0347H30.8049V24.7672V26.0135H29.891H28.977V24.7672V23.5208H27.9965C26.5508 23.5208 26.4843 23.471 26.4843 22.4241V21.5267H27.7307H28.977V20.2804V19.034H29.891H30.8049V20.2804Z" fill="#6252A3"/>
</g>
</svg>
