<svg width="33" height="33" viewBox="0 0 33 33" fill="none" xmlns="http://www.w3.org/2000/svg">
<path fill-rule="evenodd" clip-rule="evenodd" d="M8.25 2.75049C5.21243 2.75049 2.75 5.21292 2.75 8.25049V24.7505C2.75 27.788 5.21243 30.2505 8.25 30.2505H24.75C27.7875 30.2505 30.25 27.788 30.25 24.7505V8.25049C30.25 5.21292 27.7875 2.75049 24.75 2.75049H8.25ZM5.5 8.25049C5.5 6.7317 6.73122 5.50049 8.25 5.50049H24.75C26.2688 5.50049 27.5 6.7317 27.5 8.25049V24.7505C27.5 26.2693 26.2688 27.5005 24.75 27.5005H8.25C6.73122 27.5005 5.5 26.2693 5.5 24.7505V8.25049ZM12.375 15.1255C12.375 14.3661 11.7594 13.7505 11 13.7505C10.2406 13.7505 9.625 14.3661 9.625 15.1255V23.3755C9.625 24.1349 10.2406 24.7505 11 24.7505C11.7594 24.7505 12.375 24.1349 12.375 23.3755V15.1255ZM13.0625 10.313C13.0625 11.4521 12.1391 12.3755 11 12.3755C9.86091 12.3755 8.9375 11.4521 8.9375 10.313C8.9375 9.1739 9.86091 8.25049 11 8.25049C12.1391 8.25049 13.0625 9.1739 13.0625 10.313ZM16.5 13.7505C16.9668 13.7505 17.3793 13.9831 17.6279 14.3389C18.3327 13.957 19.1174 13.7505 19.9375 13.7505C22.9067 13.7505 24.75 16.3985 24.75 18.6612V18.6716V18.6819V18.6924V18.7028V18.7133V18.7239V18.7343V18.7449V18.7555V18.7661V18.7768V18.7874V18.7981V18.8088V18.8196V18.8303V18.841V18.8519V18.8627V18.8735V18.8845V18.8953V18.9062V18.9172V18.928V18.9391V18.95V18.9612V18.9722V18.9833V18.9943V19.0055V19.0166V19.0277V19.039V19.0501V19.0614V19.0726V19.0838V19.0951V19.1065V19.1178V19.1291V19.1405V19.1519V19.1632V19.1746V19.1861V19.1975V19.209V19.2205V19.2321V19.2435V19.255V19.2666V19.2781V19.2898V19.3014V19.313V19.3246V19.3363V19.348V19.3597V19.3713V19.383V19.3947V19.4065V19.4182V19.4301V19.4419V19.4537V19.4654V19.4774V19.4892V19.501V19.5128V19.5248V19.5366V19.5486V19.5604V19.5724V19.5843V19.5963V19.6083V19.6202V19.6322V19.6443V19.6562V19.6683V19.6803V19.6924V19.7044V19.7165V19.7286V19.7407V19.7528V19.7649V19.777V19.7891V19.8012V19.8133V19.8255V19.8376V19.8498V19.8619V19.8742V19.8863V19.8985V19.9108V19.923V19.9351V19.9473V19.9596V19.9718V19.984V19.9963V20.0085V20.0208V20.0331V20.0454V20.0576V20.0698V20.0822V20.0945V20.1067V20.1191V20.1313V20.1437V20.1559V20.1682V20.1805V20.1929V20.2051V20.2175V20.2298V20.2421V20.2545V20.2668V20.2791V20.2914V20.3037V20.3161V20.3284V20.3407V20.3531V20.3653V20.3777V20.3901V20.4025V20.4147V20.4271V20.4394V20.4517V20.4641V20.4764V20.4887V20.501V20.5133V20.5257V20.5379V20.5503V20.5626V20.5749V20.5873V20.5995V20.6117V20.6241V20.6363V20.6487V20.661V20.6732V20.6854V20.6978V20.71V20.7223V20.7345V20.7468V20.759V20.7712V20.7835V20.7957V20.8079V20.8202V20.8323V20.8445V20.8568V20.8689V20.8811V20.8932V20.9054V20.9175V20.9298V20.9419V20.954V20.9661V20.9782V20.9903V21.0024V21.0145V21.0266V21.0387V21.0506V21.0627V21.0747V21.0868V21.0988V21.1107V21.1227V21.1346V21.1466V21.1586V21.1705V21.1825V21.1945V21.2063V21.2182V21.2301V21.2419V21.2539V21.2657V21.2775V21.2892V21.301V21.3128V21.3247V21.3364V21.348V21.3599V21.3716V21.3832V21.3949V21.4066V21.4182V21.4299V21.4414V21.4531V21.4646V21.4762V21.4877V21.4993V21.5108V21.5223V21.5338V21.5452V21.5566V21.568V21.5795V21.5909V21.6023V21.6136V21.625V21.6362V21.6475V21.6588V21.6701V21.6814V21.6925V21.7038V21.7149V21.726V21.7372V21.7483V21.7593V21.7704V21.7815V21.7924V21.8034V21.8144V21.8254V21.8363V21.8472V21.8582V21.869V21.8798V21.8906V21.9015V21.9122V21.9229V21.9337V21.9444V21.955V21.9657V21.9763V21.9869V21.9975V22.0081V22.0185V22.0291V22.0395V22.05V22.0603V22.0707V22.0811V22.0914V22.1017V22.112V22.1223V22.1325V22.1427V22.1528V22.163V22.173V22.1832V22.1933V22.2033V22.2132V22.2232V22.2331V22.243V22.2529V22.2628V22.2726V22.2824V22.2921V22.3019V22.3115V22.3211V22.3308V22.3404V22.35V22.3595V22.369V22.3785V22.388V22.3973V22.4067V22.416V22.4254V22.4346V22.4438V22.453V22.4622V22.4714V22.4805V22.4896V22.4985V22.5076V22.5165V22.5255V22.5343V22.5432V22.552V22.5608V22.5695V22.5783V22.5869V22.5956V22.6041V22.6126V22.6212V22.6297V22.6382V22.6466V22.655V22.6632V22.6716V22.6799V22.688V22.6962V22.7043V22.7125V22.7206V22.7285V22.7365V22.7445V22.7523V22.7602V22.768V22.7758V22.7835V22.7912V22.7989V22.8065V22.8141V22.8216V22.8291V22.8366V22.8439V22.8513V22.8586V22.8659V22.8732V22.8804V22.8875V22.8946V22.9017V22.9087V22.9157V22.9226V22.9294V22.9363V22.943V22.9498V22.9565V22.9631V22.9697V22.9763V22.9828V22.9893V22.9957V23.002V23.0084V23.0147V23.0209V23.0271V23.0332V23.0393V23.0453V23.0514V23.0573V23.0632V23.069V23.0748V23.0805V23.0863V23.092V23.0975V23.1031V23.1086V23.114V23.1195V23.1248V23.1301V23.1353V23.1405V23.1456V23.1507V23.1558V23.1607V23.1657V23.1706V23.1754V23.1802V23.1849V23.1896V23.1943V23.1988V23.2033V23.2077V23.2121V23.2165V23.2208V23.2251V23.2292V23.2333V23.2374V23.2414V23.2454V23.2494V23.2533V23.257V23.2607V23.2644V23.2681V23.2717V23.2751V23.2785V23.282V23.2853V23.2886V23.2919V23.295V23.2982V23.3012V23.3041V23.3071V23.31V23.3128V23.3155V23.3183V23.3209V23.3235V23.326V23.3285V23.3309V23.3333V23.3355V23.3377V23.3399V23.3419V23.344V23.3459V23.3478V23.3498V23.3516V23.3532V23.3549V23.3565V23.358V23.3595V23.3609V23.3635V23.3659V23.3681V23.3698V23.3715V23.3733V23.3749C24.75 24.1343 24.1344 24.7505 23.375 24.7505C22.6156 24.7505 22 24.1349 22 23.3755V23.3738V23.3722V23.3707V23.369V23.367V23.3648V23.3623V23.3595V23.358V23.3565V23.3549V23.3532V23.3516V23.3498V23.3478V23.3459V23.344V23.3419V23.3399V23.3377V23.3355V23.3333V23.3309V23.3285V23.326V23.3235V23.3209V23.3183V23.3155V23.3128V23.31V23.3071V23.3041V23.3012V23.2982V23.295V23.2919V23.2886V23.2853V23.282V23.2785V23.2751V23.2717V23.2681V23.2644V23.2607V23.257V23.2533V23.2494V23.2454V23.2414V23.2374V23.2333V23.2292V23.2251V23.2208V23.2165V23.2121V23.2077V23.2033V23.1988V23.1943V23.1896V23.1849V23.1802V23.1754V23.1706V23.1657V23.1607V23.1558V23.1507V23.1456V23.1405V23.1353V23.1301V23.1248V23.1195V23.114V23.1086V23.1031V23.0975V23.092V23.0863V23.0805V23.0748V23.069V23.0632V23.0573V23.0514V23.0453V23.0393V23.0332V23.0271V23.0209V23.0147V23.0084V23.002V22.9957V22.9893V22.9828V22.9763V22.9697V22.9631V22.9565V22.9498V22.943V22.9363V22.9294V22.9226V22.9157V22.9087V22.9017V22.8946V22.8875V22.8804V22.8732V22.8659V22.8586V22.8513V22.8439V22.8366V22.8291V22.8216V22.8141V22.8065V22.7989V22.7912V22.7835V22.7758V22.768V22.7602V22.7523V22.7445V22.7365V22.7285V22.7206V22.7125V22.7043V22.6962V22.688V22.6799V22.6716V22.6632V22.655V22.6466V22.6382V22.6297V22.6212V22.6126V22.6041V22.5956V22.5869V22.5783V22.5695V22.5608V22.552V22.5432V22.5343V22.5255V22.5165V22.5076V22.4985V22.4896V22.4805V22.4714V22.4622V22.453V22.4438V22.4346V22.4254V22.416V22.4067V22.3973V22.388V22.3785V22.369V22.3595V22.35V22.3404V22.3308V22.3211V22.3115V22.3019V22.2921V22.2824V22.2726V22.2628V22.2529V22.243V22.2331V22.2232V22.2132V22.2033V22.1933V22.1832V22.173V22.163V22.1528V22.1427V22.1325V22.1223V22.112V22.1017V22.0914V22.0811V22.0707V22.0603V22.05V22.0395V22.0291V22.0185V22.0081V21.9975V21.9869V21.9763V21.9657V21.955V21.9444V21.9337V21.9229V21.9122V21.9015V21.8906V21.8798V21.869V21.8582V21.8472V21.8363V21.8254V21.8144V21.8034V21.7924V21.7815V21.7704V21.7593V21.7483V21.7372V21.726V21.7149V21.7038V21.6925V21.6814V21.6701V21.6588V21.6475V21.6362V21.625V21.6136V21.6023V21.5909V21.5795V21.568V21.5566V21.5452V21.5338V21.5223V21.5108V21.4993V21.4877V21.4762V21.4646V21.4531V21.4414V21.4299V21.4182V21.4066V21.3949V21.3832V21.3716V21.3599V21.348V21.3364V21.3247V21.3128V21.301V21.2892V21.2775V21.2657V21.2539V21.2419V21.2301V21.2182V21.2063V21.1945V21.1825V21.1705V21.1586V21.1466V21.1346V21.1227V21.1107V21.0988V21.0868V21.0747V21.0627V21.0506V21.0387V21.0266V21.0145V21.0024V20.9903V20.9782V20.9661V20.954V20.9419V20.9298V20.9175V20.9054V20.8932V20.8811V20.8689V20.8568V20.8445V20.8323V20.8202V20.8079V20.7957V20.7835V20.7712V20.759V20.7468V20.7345V20.7223V20.71V20.6978V20.6854V20.6732V20.661V20.6487V20.6363V20.6241V20.6117V20.5995V20.5873V20.5749V20.5626V20.5503V20.5379V20.5257V20.5133V20.501V20.4887V20.4764V20.4641V20.4517V20.4394V20.4271V20.4147V20.4025V20.3901V20.3777V20.3653V20.3531V20.3407V20.3284V20.3161V20.3037V20.2914V20.2791V20.2668V20.2545V20.2421V20.2298V20.2175V20.2051V20.1929V20.1805V20.1682V20.1559V20.1437V20.1313V20.1191V20.1067V20.0945V20.0822V20.0698V20.0576V20.0454V20.0331V20.0208V20.0085V19.9963V19.984V19.9718V19.9596V19.9473V19.9351V19.923V19.9108V19.8985V19.8863V19.8742V19.8619V19.8498V19.8376V19.8255V19.8133V19.8012V19.7891V19.777V19.7649V19.7528V19.7407V19.7286V19.7165V19.7044V19.6924V19.6803V19.6683V19.6562V19.6443V19.6322V19.6202V19.6083V19.5963V19.5843V19.5724V19.5604V19.5486V19.5366V19.5248V19.5128V19.501V19.4892V19.4774V19.4654V19.4537V19.4419V19.4301V19.4182V19.4065V19.3947V19.383V19.3713V19.3597V19.348V19.3363V19.3246V19.313V19.3014V19.2898V19.2781V19.2666V19.255V19.2435V19.2321V19.2205V19.209V19.1975V19.1861V19.1746V19.1632V19.1519V19.1405V19.1291V19.1178V19.1065V19.0951V19.0838V19.0726V19.0614V19.0501V19.039V19.0277V19.0166V19.0055V18.9943V18.9833V18.9722V18.9612V18.95V18.9391V18.928V18.9172V18.9062V18.8953V18.8845V18.8735V18.8627V18.8519V18.841V18.8303V18.8196V18.8088V18.7981V18.7874V18.7768V18.7661V18.7555V18.7449V18.7343V18.7239V18.7133V18.7028V18.6924V18.6819V18.6716V18.6612C22 17.6049 21.0933 16.5005 19.9375 16.5005C19.2169 16.5005 18.4214 16.8922 17.875 17.8247V17.8285V17.8426V17.8568V17.8709V17.8852V17.8994V17.9137V17.928V17.9424V17.9567V17.971V17.9855V17.9999V18.0144V18.0288V18.0432V18.0578V18.0724V18.0868V18.1014V18.116V18.1305V18.1453V18.1598V18.1745V18.1893V18.2038V18.2187V18.2334V18.2481V18.2628V18.2777V18.2925V18.3072V18.3221V18.3369V18.3518V18.3668V18.3816V18.3966V18.4115V18.4264V18.4414V18.4564V18.4714V18.4864V18.5014V18.5165V18.5315V18.5466V18.5616V18.5767V18.5919V18.607V18.6221V18.6372V18.6524V18.6676V18.6827V18.6979V18.7131V18.7284V18.7435V18.7588V18.774V18.7893V18.8046V18.8198V18.8351V18.8504V18.8658V18.881V18.8963V18.9117V18.9269V18.9423V18.9577V18.973V18.9884V19.0038V19.0192V19.0345V19.0499V19.0653V19.0807V19.0962V19.1116V19.127V19.1424V19.1578V19.1732V19.1887V19.2041V19.2195V19.2351V19.2505V19.266V19.2814V19.297V19.3124V19.3278V19.3433V19.3588V19.3742V19.3898V19.4052V19.4207V19.4361V19.4517V19.4672V19.4826V19.4981V19.5135V19.5291V19.5446V19.56V19.5755V19.5909V19.6065V19.6219V19.6374V19.6528V19.6683V19.6837V19.6993V19.7147V19.7302V19.7456V19.7612V19.7766V19.792V19.8074V19.8229V19.8383V19.8537V19.8691V19.8845V19.8999V19.9153V19.9307V19.9461V19.9615V19.9769V19.9923V20.0076V20.023V20.0384V20.0536V20.069V20.0843V20.0997V20.115V20.1302V20.1455V20.1607V20.1761V20.1914V20.2065V20.2218V20.237V20.2523V20.2674V20.2827V20.2978V20.3131V20.3282V20.3433V20.3585V20.3736V20.3887V20.4038V20.419V20.4339V20.4491V20.4641V20.4792V20.4942V20.5092V20.5241V20.5391V20.5541V20.569V20.584V20.5988V20.6138V20.6286V20.6435V20.6583V20.6732V20.688V20.7028V20.7176V20.7323V20.747V20.7617V20.7765V20.7912V20.8059V20.8206V20.8352V20.8497V20.8643V20.8789V20.8935V20.908V20.9226V20.9371V20.9515V20.9659V20.9804V20.9948V21.0093V21.0236V21.0378V21.0523V21.0666V21.0807V21.095V21.1094V21.1235V21.1377V21.1518V21.166V21.18V21.1942V21.2082V21.2222V21.2363V21.2503V21.2642V21.2782V21.2921V21.306V21.3197V21.3336V21.3474V21.3611V21.3749V21.3886V21.4024V21.416V21.4296V21.4432V21.4568V21.4703V21.4839V21.4974V21.5108V21.5242V21.5377V21.551V21.5643V21.5777V21.5909V21.6042V21.6174V21.6306V21.6437V21.6569V21.6699V21.683V21.6961V21.709V21.7219V21.7348V21.7478V21.7607V21.7735V21.7863V21.7989V21.8117V21.8243V21.837V21.8496V21.8622V21.8748V21.8873V21.8997V21.9122V21.9246V21.937V21.9492V21.9616V21.9738V21.986V21.9981V22.0102V22.0223V22.0344V22.0464V22.0584V22.0703V22.0823V22.0941V22.1059V22.1178V22.1295V22.1411V22.1528V22.1645V22.1761V22.1876V22.199V22.2104V22.2219V22.2333V22.2447V22.256V22.2671V22.2784V22.2895V22.3006V22.3116V22.3226V22.3336V22.3446V22.3555V22.3664V22.3771V22.3878V22.3985V22.4093V22.4199V22.4304V22.4409V22.4515V22.4619V22.4722V22.4826V22.4929V22.5032V22.5134V22.5234V22.5336V22.5436V22.5536V22.5635V22.5735V22.5833V22.5931V22.6029V22.6125V22.6223V22.6318V22.6414V22.6509V22.6603V22.6697V22.679V22.6883V22.6976V22.7068V22.7159V22.725V22.7341V22.743V22.7519V22.7607V22.7695V22.7783V22.7871V22.7957V22.8043V22.8128V22.8214V22.8297V22.8381V22.8465V22.8548V22.8629V22.8711V22.8792V22.8872V22.8952V22.9032V22.911V22.9188V22.9265V22.9342V22.9419V22.9495V22.9569V22.9645V22.9718V22.9792V22.9865V22.9936V23.0008V23.0079V23.015V23.022V23.0288V23.0357V23.0425V23.0492V23.0559V23.0625V23.0691V23.0756V23.0819V23.0884V23.0946V23.1009V23.1071V23.1131V23.1192V23.1251V23.131V23.1369V23.1427V23.1483V23.1541V23.1596V23.1651V23.1706V23.176V23.1813V23.1866V23.1918V23.1969V23.202V23.2069V23.2119V23.2167V23.2215V23.2262V23.2308V23.2354V23.2399V23.2443V23.2487V23.253V23.2572V23.2614V23.2655V23.2695V23.2735V23.2773V23.281V23.2849V23.2885V23.292V23.2956V23.299V23.3023V23.3056V23.3089V23.3121V23.3151V23.3181V23.321V23.3239V23.3267V23.3294V23.332V23.3347V23.3371V23.3395V23.3418V23.344V23.3462V23.3484V23.3503V23.3523V23.3542V23.356V23.3577V23.3594V23.3609V23.3624V23.3638V23.3664V23.3686V23.3705V23.3722V23.374V23.3754C17.875 24.1348 17.2594 24.7505 16.5 24.7505C15.7406 24.7505 15.125 24.1349 15.125 23.3755V23.374V23.3722V23.3705V23.3686V23.3664V23.3638V23.3624V23.3609V23.3594V23.3577V23.356V23.3542V23.3523V23.3503V23.3484V23.3462V23.344V23.3418V23.3395V23.3371V23.3347V23.332V23.3294V23.3267V23.3239V23.321V23.3181V23.3151V23.3121V23.3089V23.3056V23.3023V23.299V23.2956V23.292V23.2885V23.2849V23.281V23.2773V23.2735V23.2695V23.2655V23.2614V23.2572V23.253V23.2487V23.2443V23.2399V23.2354V23.2308V23.2262V23.2215V23.2167V23.2119V23.2069V23.202V23.1969V23.1918V23.1866V23.1813V23.176V23.1706V23.1651V23.1596V23.1541V23.1483V23.1427V23.1369V23.131V23.1251V23.1192V23.1131V23.1071V23.1009V23.0946V23.0884V23.0819V23.0756V23.0691V23.0625V23.0559V23.0492V23.0425V23.0357V23.0288V23.022V23.015V23.0079V23.0008V22.9936V22.9865V22.9792V22.9718V22.9645V22.9569V22.9495V22.9419V22.9342V22.9265V22.9188V22.911V22.9032V22.8952V22.8872V22.8792V22.8711V22.8629V22.8548V22.8465V22.8381V22.8297V22.8214V22.8128V22.8043V22.7957V22.7871V22.7783V22.7695V22.7607V22.7519V22.743V22.7341V22.725V22.7159V22.7068V22.6976V22.6883V22.679V22.6697V22.6603V22.6509V22.6414V22.6318V22.6223V22.6125V22.6029V22.5931V22.5833V22.5735V22.5635V22.5536V22.5436V22.5336V22.5234V22.5134V22.5032V22.4929V22.4826V22.4722V22.4619V22.4515V22.4409V22.4304V22.4199V22.4093V22.3985V22.3878V22.3771V22.3664V22.3555V22.3446V22.3336V22.3226V22.3116V22.3006V22.2895V22.2784V22.2671V22.256V22.2447V22.2333V22.2219V22.2104V22.199V22.1876V22.1761V22.1645V22.1528V22.1411V22.1295V22.1178V22.1059V22.0941V22.0823V22.0703V22.0584V22.0464V22.0344V22.0223V22.0102V21.9981V21.986V21.9738V21.9616V21.9492V21.937V21.9246V21.9122V21.8997V21.8873V21.8748V21.8622V21.8496V21.837V21.8243V21.8117V21.7989V21.7863V21.7735V21.7607V21.7478V21.7348V21.7219V21.709V21.6961V21.683V21.6699V21.6569V21.6437V21.6306V21.6174V21.6042V21.5909V21.5777V21.5643V21.551V21.5377V21.5242V21.5108V21.4974V21.4839V21.4703V21.4568V21.4432V21.4296V21.416V21.4024V21.3886V21.3749V21.3611V21.3474V21.3336V21.3197V21.306V21.2921V21.2782V21.2642V21.2503V21.2363V21.2222V21.2082V21.1942V21.18V21.166V21.1518V21.1377V21.1235V21.1094V21.095V21.0807V21.0666V21.0523V21.0378V21.0236V21.0093V20.9948V20.9804V20.9659V20.9515V20.9371V20.9226V20.908V20.8935V20.8789V20.8643V20.8497V20.8352V20.8206V20.8059V20.7912V20.7765V20.7617V20.747V20.7323V20.7176V20.7028V20.688V20.6732V20.6583V20.6435V20.6286V20.6138V20.5988V20.584V20.569V20.5541V20.5391V20.5241V20.5092V20.4942V20.4792V20.4641V20.4491V20.4339V20.419V20.4038V20.3887V20.3736V20.3585V20.3433V20.3282V20.3131V20.2978V20.2827V20.2674V20.2523V20.237V20.2218V20.2065V20.1914V20.1761V20.1607V20.1455V20.1302V20.115V20.0997V20.0843V20.069V20.0536V20.0384V20.023V20.0076V19.9923V19.9769V19.9615V19.9461V19.9307V19.9153V19.8999V19.8845V19.8691V19.8537V19.8383V19.8229V19.8074V19.792V19.7766V19.7612V19.7456V19.7302V19.7147V19.6993V19.6837V19.6683V19.6528V19.6374V19.6219V19.6065V19.5909V19.5755V19.56V19.5446V19.5291V19.5135V19.4981V19.4826V19.4672V19.4517V19.4361V19.4207V19.4052V19.3898V19.3742V19.3588V19.3433V19.3278V19.3124V19.297V19.2814V19.266V19.2505V19.2351V19.2195V19.2041V19.1887V19.1732V19.1578V19.1424V19.127V19.1116V19.0962V19.0807V19.0653V19.0499V19.0345V19.0192V19.0038V18.9884V18.973V18.9577V18.9423V18.9269V18.9117V18.8963V18.881V18.8658V18.8504V18.8351V18.8198V18.8046V18.7893V18.774V18.7588V18.7435V18.7284V18.7131V18.6979V18.6827V18.6676V18.6524V18.6372V18.6221V18.607V18.5919V18.5767V18.5616V18.5466V18.5315V18.5165V18.5014V18.4864V18.4714V18.4564V18.4414V18.4264V18.4115V18.3966V18.3816V18.3668V18.3518V18.3369V18.3221V18.3072V18.2925V18.2777V18.2628V18.2481V18.2334V18.2187V18.2038V18.1893V18.1745V18.1598V18.1453V18.1305V18.116V18.1014V18.0868V18.0724V18.0578V18.0432V18.0288V18.0144V17.9999V17.9855V17.971V17.9567V17.9424V17.928V17.9137V17.8994V17.8852V17.8709V17.8568V17.8426V17.8285V17.8143V17.8001V17.786V17.7719V17.7579V17.7439V17.7299V17.716V17.702V17.6881V17.6742V17.6603V17.6465V17.6327V17.6189V17.6052V17.5914V17.5777V17.564V17.5504V17.5368V17.5232V17.5096V17.4961V17.4826V17.4773V17.4718V17.4664V17.4609V17.4556V17.4501V17.4446V17.4391V17.4336V17.4281V17.4226V17.4171V17.4116V17.4061V17.4004V17.3949V17.3893V17.3836V17.3781V17.3725V17.3669V17.3612V17.3556V17.35V17.3443V17.3387V17.333V17.3273V17.3216V17.3159V17.3102V17.3044V17.2987V17.293V17.2873V17.2815V17.2757V17.2699V17.2642V17.2584V17.2526V17.2467V17.2409V17.2351V17.2292V17.2235V17.2175V17.2118V17.2059V17.2V17.1942V17.1883V17.1824V17.1764V17.1705V17.1646V17.1587V17.1528V17.1469V17.1408V17.1349V17.129V17.1231V17.117V17.1111V17.1051V17.0992V17.0931V17.0871V17.0812V17.0751V17.069V17.0631V17.0571V17.051V17.045V17.0389V17.0329V17.0268V17.0208V17.0147V17.0087V17.0026V16.9964V16.9904V16.9843V16.9783V16.9721V16.9661V16.96V16.9538V16.9478V16.9416V16.9355V16.9293V16.9233V16.9171V16.9111V16.9049V16.8987V16.8926V16.8864V16.8803V16.8742V16.868V16.8618V16.8556V16.8496V16.8434V16.8372V16.831V16.8248V16.8187V16.8126V16.8064V16.8002V16.794V16.7879V16.7817V16.7755V16.7693V16.7631V16.7569V16.7507V16.7445V16.7384V16.7322V16.726V16.7198V16.7136V16.7074V16.7012V16.6951V16.6889V16.6827V16.6765V16.6703V16.6641V16.6579V16.6517V16.6455V16.6392V16.633V16.6268V16.6207V16.6145V16.6083V16.6021V16.5959V16.5897V16.5835V16.5775V16.5713V16.5651V16.5589V16.5527V16.5465V16.5404V16.5342V16.528V16.5218V16.5157V16.5096V16.5034V16.4972V16.4911V16.4849V16.4788V16.4726V16.4665V16.4603V16.4541V16.4481V16.4419V16.4359V16.4297V16.4236V16.4174V16.4114V16.4052V16.3991V16.3931V16.3869V16.3809V16.3748V16.3686V16.3626V16.3565V16.3505V16.3444V16.3384V16.3323V16.3263V16.3202V16.3142V16.3081V16.3021V16.296V16.2901V16.2841V16.278V16.272V16.2661V16.26V16.2541V16.248V16.2421V16.2361V16.2302V16.2242V16.2183V16.2123V16.2064V16.2005V16.1945V16.1886V16.1827V16.1768V16.1709V16.1651V16.1592V16.1533V16.1475V16.1416V16.1357V16.1299V16.1242V16.1182V16.1125V16.1067V16.1009V16.0951V16.0892V16.0834V16.0778V16.072V16.0663V16.0605V16.0549V16.0491V16.0433V16.0377V16.032V16.0262V16.0206V16.015V16.0093V16.0037V15.9981V15.9924V15.9868V15.9811V15.9756V15.97V15.9644V15.9589V15.9534V15.9477V15.9422V15.9367V15.9312V15.9257V15.9202V15.9147V15.9092V15.9039V15.8984V15.893V15.8875V15.8821V15.8768V15.8713V15.8659V15.8606V15.8553V15.85V15.8446V15.8392V15.834V15.8287V15.8234V15.8182V15.813V15.8078V15.8025V15.7973V15.7921V15.7869V15.7818V15.7766V15.7715V15.7664V15.7612V15.7561V15.751V15.7459V15.7409V15.7358V15.7308V15.7258V15.7207V15.7158V15.7108V15.7059V15.7009V15.696V15.691V15.6862V15.6813V15.6764V15.6715V15.6667V15.6619V15.6571V15.6522V15.6476V15.6428V15.6381V15.6333V15.6286V15.6239V15.6193V15.6146V15.6099V15.6052V15.6007V15.596V15.5915V15.5869V15.5824V15.5779V15.5733V15.5688V15.5644V15.5598V15.5555V15.551V15.5466V15.5422V15.5378V15.5334V15.5292V15.5248V15.5205V15.5163V15.512V15.5077V15.5035V15.4993V15.4951V15.491V15.4868V15.4827V15.4786V15.4745V15.4703V15.4663V15.4622V15.4582V15.4543V15.4503V15.4463V15.4424V15.4384V15.4346V15.4306V15.4267V15.4229V15.4192V15.4153V15.4116V15.4078V15.4041V15.4003V15.3966V15.3929V15.3893V15.3856V15.3821V15.3785V15.3749V15.3713V15.3679V15.3643V15.3609V15.3574V15.354V15.3506V15.3471V15.3438V15.3404V15.3371V15.3338V15.3305V15.3272V15.324V15.3207V15.3176V15.3144V15.3112V15.3082V15.3051V15.302V15.2989V15.2958V15.2928V15.2899V15.2869V15.284V15.2811V15.2782V15.2754V15.2725V15.2697V15.2668V15.2641V15.2613V15.2587V15.256V15.2534V15.2506V15.248V15.2455V15.2429V15.2403V15.2378V15.2353V15.2329V15.2304V15.2281V15.2256V15.2233V15.2209V15.2186V15.2164V15.214V15.2118V15.2096V15.2074V15.2052V15.2032V15.2011V15.199V15.197V15.1949V15.1929V15.1909V15.189V15.1871V15.1852V15.1834V15.1816V15.1797V15.178V15.1762V15.1744V15.1728V15.1711V15.1695V15.1678V15.1663V15.1648V15.1633V15.1618V15.1603V15.1589V15.1574V15.156V15.1534V15.1509V15.1484V15.1461V15.1439V15.1418V15.1399V15.138V15.1363V15.1347V15.1326V15.1313V15.1296V15.1282V15.1266C15.125 14.3672 15.7406 13.7505 16.5 13.7505Z" fill="#EBEBEB"/>
</svg>
