<svg width="33" height="33" viewBox="0 0 33 33" fill="none" xmlns="http://www.w3.org/2000/svg">
<g id="facebook-svgrepo-com">
<path id="Vector" fill-rule="evenodd" clip-rule="evenodd" d="M2.75 8.25049C2.75 5.21292 5.21243 2.75049 8.25 2.75049H24.75C27.7875 2.75049 30.25 5.21292 30.25 8.25049V24.7505C30.25 27.788 27.7875 30.2505 24.75 30.2505H8.25C5.21243 30.2505 2.75 27.788 2.75 24.7505V8.25049ZM8.25 5.50049C6.73122 5.50049 5.5 6.7317 5.5 8.25049V24.7505C5.5 26.2693 6.73122 27.5005 8.25 27.5005H16.5V17.8755H15.125C14.3656 17.8755 13.75 17.2599 13.75 16.5005C13.75 15.7411 14.3656 15.1255 15.125 15.1255H16.5V13.063C16.5 10.4051 18.6546 8.25049 21.3125 8.25049H22.1375C22.8969 8.25049 23.5125 8.8661 23.5125 9.62549C23.5125 10.3849 22.8969 11.0005 22.1375 11.0005H21.3125C20.1734 11.0005 19.25 11.9239 19.25 13.063V15.1255H22.1375C22.8969 15.1255 23.5125 15.7411 23.5125 16.5005C23.5125 17.2599 22.8969 17.8755 22.1375 17.8755H19.25V27.5005H24.75C26.2688 27.5005 27.5 26.2693 27.5 24.7505V8.25049C27.5 6.7317 26.2688 5.50049 24.75 5.50049H8.25Z" fill="#EBEBEB"/>
</g>
</svg>
