<svg width="27" height="27" viewBox="0 0 27 27" fill="none" xmlns="http://www.w3.org/2000/svg">
<g id="instagram-167-svgrepo-com" clip-path="url(#clip0_823_1422)">
<g id="Page-1">
<g id="Dribbble-Light-Preview">
<g id="icons">
<path id="instagram-[#167]" fill-rule="evenodd" clip-rule="evenodd" d="M7.92403 0.166173C5.72639 0.26533 3.8216 0.802626 2.28352 2.33421C0.740063 3.87385 0.209441 5.78619 0.110036 7.96097C0.0482441 9.31837 -0.313084 19.5732 0.734692 22.2625C1.44127 24.0769 2.83289 25.4719 4.66381 26.1807C5.51815 26.513 6.49342 26.738 7.92403 26.8036C19.8861 27.345 24.3204 27.0503 26.1902 22.2625C26.522 21.4103 26.7504 20.4359 26.8135 19.0088C27.3603 7.01604 26.7249 4.41654 24.6401 2.33421C22.9865 0.684704 21.0414 -0.438155 7.92403 0.166173ZM8.03416 24.3917C6.72444 24.3327 6.01384 24.1145 5.53966 23.9309C4.34681 23.4673 3.45083 22.575 2.99007 21.3891C2.19215 19.3457 2.45679 9.64019 2.52799 8.06974C2.59784 6.53144 2.90948 5.12554 3.99487 4.04017C5.33817 2.70019 7.0737 2.04348 18.8907 2.57679C20.4328 2.64647 21.842 2.95747 22.9301 4.04017C24.2734 5.38014 24.9396 7.12903 24.3969 18.9007C24.3378 20.2072 24.1189 20.9161 23.9349 21.3891C22.7192 24.5046 19.9224 24.937 8.03416 24.3917ZM19.021 6.33148C19.021 7.21855 19.7424 7.93988 20.633 7.93988C21.5236 7.93988 22.2463 7.21855 22.2463 6.33148C22.2463 5.44442 21.5236 4.72374 20.633 4.72374C19.7424 4.72374 19.021 5.44442 19.021 6.33148ZM6.5646 13.4842C6.5646 17.2844 9.65286 20.3654 13.4625 20.3654C17.2721 20.3654 20.3603 17.2844 20.3603 13.4842C20.3603 9.68407 17.2721 6.60504 13.4625 6.60504C9.65286 6.60504 6.5646 9.68407 6.5646 13.4842ZM8.98523 13.4842C8.98523 11.0187 10.9894 9.0183 13.4625 9.0183C15.9355 9.0183 17.9397 11.0187 17.9397 13.4842C17.9397 15.9511 15.9355 17.9522 13.4625 17.9522C10.9894 17.9522 8.98523 15.9511 8.98523 13.4842Z" fill="#EBEBEB"/>
</g>
</g>
</g>
</g>
<defs>
<clipPath id="clip0_823_1422">
<rect width="27" height="27" fill="white" transform="translate(0 0.000488281)"/>
</clipPath>
</defs>
</svg>
